<?xml version="1.0" encoding="iso-8859-1"?>
<!-- Generator: Adobe Illustrator 19.0.0, SVG Export Plug-In . SVG Version: 6.00 Build 0)  -->
<svg version="1.1" id="Capa_1" xmlns="http://www.w3.org/2000/svg" xmlns:xlink="http://www.w3.org/1999/xlink" x="0px" y="0px"
	 viewBox="0 0 512 512" style="enable-background:new 0 0 512 512;" xml:space="preserve">
<path style="fill:#AB5D26;" d="M497,241H299.243c-0.593-1.704-1.275-3.366-2.058-4.973L461.063,72.15
	c5.858-5.857,5.858-15.355,0-21.213c-5.857-5.857-15.355-5.857-21.213,0L275.973,214.814c-1.606-0.782-3.269-1.465-4.973-2.058V15
	c0-8.284-6.716-15-15-15s-15,6.716-15,15v197.757c-1.704,0.593-3.366,1.276-4.973,2.058L72.15,50.938
	c-5.857-5.857-15.355-5.857-21.213,0s-5.858,15.355,0,21.213l163.877,163.877c-0.782,1.606-1.465,3.269-2.058,4.973H15
	c-8.284,0-15,6.716-15,15s6.716,15,15,15h197.757c0.593,1.704,1.275,3.366,2.058,4.973L50.938,439.85
	c-5.858,5.857-5.858,15.355,0,21.213c2.929,2.929,6.768,4.394,10.606,4.394s7.678-1.465,10.606-4.394l163.877-163.877
	c1.606,0.782,3.269,1.465,4.973,2.058V497c0,8.284,6.716,15,15,15c8.284,0,15-6.716,15-15V299.243
	c1.704-0.593,3.366-1.276,4.973-2.058L439.85,461.063c2.929,2.929,6.768,4.394,10.606,4.394s7.678-1.465,10.606-4.394
	c5.858-5.857,5.858-15.355,0-21.213L297.186,275.973c0.782-1.606,1.465-3.269,2.058-4.973H497c8.284,0,15-6.716,15-15
	S505.284,241,497,241z M256,288.069c-17.683,0-32.069-14.386-32.069-32.069s14.386-32.069,32.069-32.069
	s32.069,14.386,32.069,32.069S273.683,288.069,256,288.069z"/>
<path style="fill:#ED8235;" d="M223.931,256c0-17.683,14.386-32.069,32.069-32.069V0c-8.284,0-15,6.716-15,15v197.757
	c-1.704,0.593-3.366,1.276-4.973,2.058L72.15,50.938c-5.857-5.857-15.355-5.857-21.213,0s-5.858,15.355,0,21.213l163.877,163.877
	c-0.782,1.606-1.465,3.269-2.058,4.973H15c-8.284,0-15,6.716-15,15s6.716,15,15,15h197.757c0.593,1.704,1.275,3.366,2.058,4.973
	L50.938,439.85c-5.858,5.857-5.858,15.355,0,21.213c2.929,2.929,6.768,4.394,10.606,4.394s7.678-1.465,10.606-4.394l163.877-163.877
	c1.606,0.782,3.269,1.465,4.973,2.058V497c0,8.284,6.716,15,15,15V288.069C238.317,288.069,223.931,273.683,223.931,256z"/>
<g>
	<path style="fill:#F7A248;" d="M83.671,412.853c-5.857-5.857-15.355-5.857-21.213,0c-5.858,5.857-5.858,15.355,0,21.213
		l15.477,15.477c2.929,2.929,6.768,4.394,10.606,4.394s7.678-1.465,10.606-4.394c5.858-5.857,5.858-15.355,0-21.213L83.671,412.853z
		"/>
	<path style="fill:#F7A248;" d="M428.329,99.147c2.929,2.929,6.768,4.394,10.606,4.394s7.678-1.465,10.606-4.394
		c5.858-5.857,5.858-15.355,0-21.213l-15.477-15.477c-5.857-5.857-15.355-5.857-21.213,0s-5.858,15.355,0,21.213L428.329,99.147z"/>
	<path style="fill:#F7A248;" d="M428.329,412.853l-15.477,15.477c-5.858,5.857-5.858,15.355,0,21.213
		c2.929,2.929,6.768,4.394,10.606,4.394s7.678-1.465,10.606-4.394l15.477-15.477c5.858-5.857,5.858-15.355,0-21.213
		C443.685,406.995,434.187,406.995,428.329,412.853z"/>
	<path style="fill:#F7A248;" d="M77.935,62.458L62.458,77.935c-5.858,5.857-5.858,15.355,0,21.213
		c2.929,2.929,6.768,4.394,10.606,4.394s7.678-1.465,10.606-4.394l15.477-15.477c5.858-5.857,5.858-15.355,0-21.213
		C93.29,56.601,83.792,56.601,77.935,62.458z"/>
	<path style="fill:#F7A248;" d="M256,185.643c-38.795,0-70.357,31.563-70.357,70.357s31.563,70.357,70.357,70.357
		s70.357-31.563,70.357-70.357S294.795,185.643,256,185.643z M256,288.069c-17.683,0-32.069-14.386-32.069-32.069
		s14.386-32.069,32.069-32.069s32.069,14.386,32.069,32.069S273.683,288.069,256,288.069z"/>
</g>
<path style="fill:#FFD357;" d="M223.931,256c0-17.683,14.386-32.069,32.069-32.069v-38.288c-38.795,0-70.357,31.563-70.357,70.357
	s31.563,70.357,70.357,70.357v-38.288C238.317,288.069,223.931,273.683,223.931,256z"/>
<path style="fill:#F7A248;" d="M256,38.595C136.122,38.595,38.595,136.122,38.595,256S136.122,473.405,256,473.405
	S473.405,375.878,473.405,256S375.878,38.595,256,38.595z M256,389.524c-73.626,0-133.524-59.898-133.524-133.524
	S182.374,122.476,256,122.476S389.524,182.374,389.524,256S329.626,389.524,256,389.524z"/>
<path style="fill:#FFD357;" d="M256,389.524c-73.626,0-133.524-59.898-133.524-133.524S182.374,122.476,256,122.476V38.595
	C136.122,38.595,38.595,136.122,38.595,256S136.122,473.405,256,473.405V389.524z"/>
<g>
</g>
<g>
</g>
<g>
</g>
<g>
</g>
<g>
</g>
<g>
</g>
<g>
</g>
<g>
</g>
<g>
</g>
<g>
</g>
<g>
</g>
<g>
</g>
<g>
</g>
<g>
</g>
<g>
</g>
</svg>
